<mxfile host="app.diagrams.net" agent="Mozilla/5.0 (Windows NT 10.0; Win64; x64) AppleWebKit/537.36 (KHTML, like Gecko) Chrome/131.0.0.0 Safari/537.36" version="26.0.2">
  <diagram name="Page-1" id="DUE7biUJpQNrbBLLqS-n">
    <mxGraphModel dx="3500" dy="2010" grid="0" gridSize="10" guides="1" tooltips="1" connect="1" arrows="1" fold="1" page="1" pageScale="1" pageWidth="850" pageHeight="1100" math="0" shadow="0">
      <root>
        <mxCell id="0" />
        <mxCell id="1" parent="0" />
        <mxCell id="IS-0kcML-_zUASKxUhi8-2" value="Participant" style="shape=umlActor;verticalLabelPosition=bottom;verticalAlign=top;html=1;" vertex="1" parent="1">
          <mxGeometry x="40" y="100" width="30" height="60" as="geometry" />
        </mxCell>
        <mxCell id="IS-0kcML-_zUASKxUhi8-3" value="" style="whiteSpace=wrap;html=1;verticalAlign=top;" vertex="1" parent="1">
          <mxGeometry x="200" y="40" width="400" height="1370" as="geometry" />
        </mxCell>
        <mxCell id="IS-0kcML-_zUASKxUhi8-7" value="&lt;p class=&quot;MsoNormal&quot;&gt;&lt;span style=&quot;mso-spacerun:&#39;yes&#39;;font-family:Arial;mso-fareast-font-family:&#39;Times New Roman&#39;;&lt;br/&gt;font-size:11.0000pt;&quot;&gt;Conference Management System&lt;/span&gt;&lt;/p&gt;" style="text;align=center;fontStyle=0;verticalAlign=middle;spacingLeft=3;spacingRight=3;strokeColor=none;rotatable=0;points=[[0,0.5],[1,0.5]];portConstraint=eastwest;html=1;" vertex="1" parent="1">
          <mxGeometry x="360" y="40" width="80" height="26" as="geometry" />
        </mxCell>
        <mxCell id="IS-0kcML-_zUASKxUhi8-8" value="Registration" style="ellipse;whiteSpace=wrap;html=1;" vertex="1" parent="1">
          <mxGeometry x="330" y="95" width="140" height="70" as="geometry" />
        </mxCell>
        <mxCell id="IS-0kcML-_zUASKxUhi8-9" value="" style="endArrow=open;endFill=1;endSize=12;html=1;rounded=0;entryX=0;entryY=0.5;entryDx=0;entryDy=0;" edge="1" parent="1" target="IS-0kcML-_zUASKxUhi8-8">
          <mxGeometry width="160" relative="1" as="geometry">
            <mxPoint x="80" y="130" as="sourcePoint" />
            <mxPoint x="240" y="130" as="targetPoint" />
          </mxGeometry>
        </mxCell>
        <mxCell id="IS-0kcML-_zUASKxUhi8-10" value="" style="endArrow=block;dashed=1;endFill=0;endSize=12;html=1;rounded=0;entryX=0.5;entryY=0;entryDx=0;entryDy=0;" edge="1" parent="1" source="IS-0kcML-_zUASKxUhi8-8" target="IS-0kcML-_zUASKxUhi8-11">
          <mxGeometry width="160" relative="1" as="geometry">
            <mxPoint x="400" y="165" as="sourcePoint" />
            <mxPoint x="400" y="230" as="targetPoint" />
          </mxGeometry>
        </mxCell>
        <mxCell id="IS-0kcML-_zUASKxUhi8-11" value="Payment Validation" style="ellipse;whiteSpace=wrap;html=1;" vertex="1" parent="1">
          <mxGeometry x="330" y="240" width="140" height="70" as="geometry" />
        </mxCell>
        <mxCell id="IS-0kcML-_zUASKxUhi8-12" value="" style="endArrow=open;endFill=1;endSize=12;html=1;rounded=0;" edge="1" parent="1">
          <mxGeometry width="160" relative="1" as="geometry">
            <mxPoint x="470" y="280" as="sourcePoint" />
            <mxPoint x="680" y="280" as="targetPoint" />
          </mxGeometry>
        </mxCell>
        <mxCell id="IS-0kcML-_zUASKxUhi8-14" value="Participant List" style="html=1;whiteSpace=wrap;" vertex="1" parent="1">
          <mxGeometry x="680" y="260" width="110" height="50" as="geometry" />
        </mxCell>
        <mxCell id="IS-0kcML-_zUASKxUhi8-15" value="" style="endArrow=diamondThin;endFill=0;endSize=24;html=1;rounded=0;" edge="1" parent="1">
          <mxGeometry width="160" relative="1" as="geometry">
            <mxPoint x="450" y="250" as="sourcePoint" />
            <mxPoint x="660" y="140" as="targetPoint" />
          </mxGeometry>
        </mxCell>
        <mxCell id="IS-0kcML-_zUASKxUhi8-16" value="PayPal / UPI / Stripe" style="ellipse;whiteSpace=wrap;html=1;" vertex="1" parent="1">
          <mxGeometry x="660" y="100" width="140" height="70" as="geometry" />
        </mxCell>
        <mxCell id="IS-0kcML-_zUASKxUhi8-17" value="Abstract Submission" style="ellipse;whiteSpace=wrap;html=1;" vertex="1" parent="1">
          <mxGeometry x="330" y="360" width="140" height="70" as="geometry" />
        </mxCell>
        <mxCell id="IS-0kcML-_zUASKxUhi8-18" value="" style="endArrow=open;endFill=1;endSize=12;html=1;rounded=0;entryX=0;entryY=0.5;entryDx=0;entryDy=0;" edge="1" parent="1" target="IS-0kcML-_zUASKxUhi8-17">
          <mxGeometry width="160" relative="1" as="geometry">
            <mxPoint x="80" y="130" as="sourcePoint" />
            <mxPoint x="410" y="310" as="targetPoint" />
          </mxGeometry>
        </mxCell>
        <mxCell id="IS-0kcML-_zUASKxUhi8-19" value="Reviewer" style="shape=umlActor;verticalLabelPosition=bottom;verticalAlign=top;html=1;" vertex="1" parent="1">
          <mxGeometry x="715" y="410" width="30" height="60" as="geometry" />
        </mxCell>
        <mxCell id="IS-0kcML-_zUASKxUhi8-20" value="Review Papers" style="ellipse;whiteSpace=wrap;html=1;" vertex="1" parent="1">
          <mxGeometry x="330" y="480" width="140" height="70" as="geometry" />
        </mxCell>
        <mxCell id="IS-0kcML-_zUASKxUhi8-21" value="" style="endArrow=open;endFill=1;endSize=12;html=1;rounded=0;entryX=0.5;entryY=0;entryDx=0;entryDy=0;" edge="1" parent="1" target="IS-0kcML-_zUASKxUhi8-20">
          <mxGeometry width="160" relative="1" as="geometry">
            <mxPoint x="390" y="430" as="sourcePoint" />
            <mxPoint x="550" y="430" as="targetPoint" />
          </mxGeometry>
        </mxCell>
        <mxCell id="IS-0kcML-_zUASKxUhi8-22" value="" style="endArrow=open;endFill=1;endSize=12;html=1;rounded=0;entryX=1.006;entryY=0.409;entryDx=0;entryDy=0;entryPerimeter=0;" edge="1" parent="1" target="IS-0kcML-_zUASKxUhi8-20">
          <mxGeometry width="160" relative="1" as="geometry">
            <mxPoint x="700" y="440" as="sourcePoint" />
            <mxPoint x="710" y="480" as="targetPoint" />
          </mxGeometry>
        </mxCell>
        <mxCell id="IS-0kcML-_zUASKxUhi8-24" value="Notify All Users" style="endArrow=block;endSize=16;endFill=0;html=1;rounded=0;entryX=0.5;entryY=1;entryDx=0;entryDy=0;" edge="1" parent="1" target="IS-0kcML-_zUASKxUhi8-14">
          <mxGeometry width="160" relative="1" as="geometry">
            <mxPoint x="735" y="400" as="sourcePoint" />
            <mxPoint x="880" y="400" as="targetPoint" />
          </mxGeometry>
        </mxCell>
        <mxCell id="IS-0kcML-_zUASKxUhi8-26" value="Track Attendance" style="ellipse;whiteSpace=wrap;html=1;" vertex="1" parent="1">
          <mxGeometry x="330" y="570" width="140" height="70" as="geometry" />
        </mxCell>
        <mxCell id="IS-0kcML-_zUASKxUhi8-28" value="Provide Feedback" style="ellipse;whiteSpace=wrap;html=1;" vertex="1" parent="1">
          <mxGeometry x="330" y="660" width="140" height="70" as="geometry" />
        </mxCell>
        <mxCell id="IS-0kcML-_zUASKxUhi8-30" value="" style="endArrow=open;endFill=1;endSize=12;html=1;rounded=0;exitX=1;exitY=0.5;exitDx=0;exitDy=0;entryX=0;entryY=1;entryDx=0;entryDy=0;" edge="1" parent="1" source="IS-0kcML-_zUASKxUhi8-28" target="IS-0kcML-_zUASKxUhi8-14">
          <mxGeometry width="160" relative="1" as="geometry">
            <mxPoint x="530" y="650" as="sourcePoint" />
            <mxPoint x="690" y="650" as="targetPoint" />
          </mxGeometry>
        </mxCell>
        <mxCell id="IS-0kcML-_zUASKxUhi8-31" value="" style="endArrow=open;endFill=1;endSize=12;html=1;rounded=0;entryX=0.023;entryY=0.266;entryDx=0;entryDy=0;entryPerimeter=0;" edge="1" parent="1" target="IS-0kcML-_zUASKxUhi8-26">
          <mxGeometry width="160" relative="1" as="geometry">
            <mxPoint x="90" y="180" as="sourcePoint" />
            <mxPoint x="220" y="190" as="targetPoint" />
          </mxGeometry>
        </mxCell>
        <mxCell id="IS-0kcML-_zUASKxUhi8-32" value="&lt;font style=&quot;line-height: 0%;&quot;&gt;Admin&lt;/font&gt;" style="shape=umlActor;verticalLabelPosition=bottom;verticalAlign=top;html=1;fontSize=12;horizontal=1;" vertex="1" parent="1">
          <mxGeometry x="40" y="780" width="30" height="60" as="geometry" />
        </mxCell>
        <mxCell id="IS-0kcML-_zUASKxUhi8-35" value="Create / Edit / Delete Event" style="ellipse;whiteSpace=wrap;html=1;" vertex="1" parent="1">
          <mxGeometry x="330" y="800" width="140" height="70" as="geometry" />
        </mxCell>
        <mxCell id="IS-0kcML-_zUASKxUhi8-36" value="Generate Reports" style="ellipse;whiteSpace=wrap;html=1;" vertex="1" parent="1">
          <mxGeometry x="330" y="890" width="140" height="70" as="geometry" />
        </mxCell>
        <mxCell id="IS-0kcML-_zUASKxUhi8-37" value="Assign Roles" style="ellipse;whiteSpace=wrap;html=1;" vertex="1" parent="1">
          <mxGeometry x="330" y="980" width="140" height="70" as="geometry" />
        </mxCell>
        <mxCell id="IS-0kcML-_zUASKxUhi8-38" value="" style="endArrow=open;endFill=1;endSize=12;html=1;rounded=0;entryX=0;entryY=0.5;entryDx=0;entryDy=0;" edge="1" parent="1" target="IS-0kcML-_zUASKxUhi8-35">
          <mxGeometry width="160" relative="1" as="geometry">
            <mxPoint x="80" y="810" as="sourcePoint" />
            <mxPoint x="260" y="810" as="targetPoint" />
          </mxGeometry>
        </mxCell>
        <mxCell id="IS-0kcML-_zUASKxUhi8-39" value="" style="endArrow=open;endFill=1;endSize=12;html=1;rounded=0;entryX=0;entryY=0.5;entryDx=0;entryDy=0;" edge="1" parent="1" target="IS-0kcML-_zUASKxUhi8-36">
          <mxGeometry width="160" relative="1" as="geometry">
            <mxPoint x="80" y="810" as="sourcePoint" />
            <mxPoint x="240" y="830" as="targetPoint" />
          </mxGeometry>
        </mxCell>
        <mxCell id="IS-0kcML-_zUASKxUhi8-40" value="" style="endArrow=open;endFill=1;endSize=12;html=1;rounded=0;entryX=0;entryY=0.5;entryDx=0;entryDy=0;" edge="1" parent="1" target="IS-0kcML-_zUASKxUhi8-37">
          <mxGeometry width="160" relative="1" as="geometry">
            <mxPoint x="80" y="810" as="sourcePoint" />
            <mxPoint x="300" y="990" as="targetPoint" />
          </mxGeometry>
        </mxCell>
        <mxCell id="IS-0kcML-_zUASKxUhi8-41" value="" style="endArrow=diamondThin;endFill=1;endSize=24;html=1;rounded=0;entryX=1;entryY=1;entryDx=0;entryDy=0;" edge="1" parent="1" target="IS-0kcML-_zUASKxUhi8-14">
          <mxGeometry width="160" relative="1" as="geometry">
            <mxPoint x="470" y="1010" as="sourcePoint" />
            <mxPoint x="810" y="720" as="targetPoint" />
            <Array as="points">
              <mxPoint x="790" y="1000" />
            </Array>
          </mxGeometry>
        </mxCell>
        <mxCell id="IS-0kcML-_zUASKxUhi8-42" value="" style="endArrow=diamondThin;endFill=0;endSize=24;html=1;rounded=0;entryX=1;entryY=0.5;entryDx=0;entryDy=0;" edge="1" parent="1" target="IS-0kcML-_zUASKxUhi8-26">
          <mxGeometry width="160" relative="1" as="geometry">
            <mxPoint x="470" y="920" as="sourcePoint" />
            <mxPoint x="700" y="530" as="targetPoint" />
            <Array as="points">
              <mxPoint x="700" y="920" />
              <mxPoint x="700" y="600" />
            </Array>
          </mxGeometry>
        </mxCell>
        <mxCell id="IS-0kcML-_zUASKxUhi8-43" value="" style="endArrow=diamondThin;endFill=0;endSize=24;html=1;rounded=0;entryX=1;entryY=0.5;entryDx=0;entryDy=0;" edge="1" parent="1" target="IS-0kcML-_zUASKxUhi8-28">
          <mxGeometry width="160" relative="1" as="geometry">
            <mxPoint x="700" y="600" as="sourcePoint" />
            <mxPoint x="680" y="680" as="targetPoint" />
          </mxGeometry>
        </mxCell>
        <mxCell id="IS-0kcML-_zUASKxUhi8-44" value="" style="endArrow=diamondThin;endFill=0;endSize=24;html=1;rounded=0;entryX=0.983;entryY=0.649;entryDx=0;entryDy=0;entryPerimeter=0;" edge="1" parent="1" target="IS-0kcML-_zUASKxUhi8-11">
          <mxGeometry width="160" relative="1" as="geometry">
            <mxPoint x="700" y="600" as="sourcePoint" />
            <mxPoint x="800" y="560" as="targetPoint" />
          </mxGeometry>
        </mxCell>
        <mxCell id="IS-0kcML-_zUASKxUhi8-45" value="Organizer" style="shape=umlActor;verticalLabelPosition=bottom;verticalAlign=top;html=1;" vertex="1" parent="1">
          <mxGeometry x="40" y="1120" width="30" height="60" as="geometry" />
        </mxCell>
        <mxCell id="IS-0kcML-_zUASKxUhi8-46" value="Manage Virtual Conference" style="ellipse;whiteSpace=wrap;html=1;" vertex="1" parent="1">
          <mxGeometry x="330" y="1110" width="140" height="70" as="geometry" />
        </mxCell>
        <mxCell id="IS-0kcML-_zUASKxUhi8-47" value="Allocate Resources" style="ellipse;whiteSpace=wrap;html=1;" vertex="1" parent="1">
          <mxGeometry x="330" y="1210" width="140" height="70" as="geometry" />
        </mxCell>
        <mxCell id="IS-0kcML-_zUASKxUhi8-48" value="Manage Sponsors" style="ellipse;whiteSpace=wrap;html=1;" vertex="1" parent="1">
          <mxGeometry x="330" y="1300" width="140" height="70" as="geometry" />
        </mxCell>
        <mxCell id="IS-0kcML-_zUASKxUhi8-49" value="" style="endArrow=open;endFill=1;endSize=12;html=1;rounded=0;entryX=0;entryY=0.5;entryDx=0;entryDy=0;" edge="1" parent="1" target="IS-0kcML-_zUASKxUhi8-46">
          <mxGeometry width="160" relative="1" as="geometry">
            <mxPoint x="80" y="1150" as="sourcePoint" />
            <mxPoint x="240" y="1150" as="targetPoint" />
          </mxGeometry>
        </mxCell>
        <mxCell id="IS-0kcML-_zUASKxUhi8-50" value="" style="endArrow=open;endFill=1;endSize=12;html=1;rounded=0;entryX=0;entryY=0.5;entryDx=0;entryDy=0;" edge="1" parent="1" target="IS-0kcML-_zUASKxUhi8-47">
          <mxGeometry width="160" relative="1" as="geometry">
            <mxPoint x="80" y="1150" as="sourcePoint" />
            <mxPoint x="310" y="1220" as="targetPoint" />
          </mxGeometry>
        </mxCell>
        <mxCell id="IS-0kcML-_zUASKxUhi8-51" value="" style="endArrow=diamondThin;endFill=1;endSize=24;html=1;rounded=0;entryX=1;entryY=0.5;entryDx=0;entryDy=0;" edge="1" parent="1" target="IS-0kcML-_zUASKxUhi8-14">
          <mxGeometry width="160" relative="1" as="geometry">
            <mxPoint x="470" y="1240" as="sourcePoint" />
            <mxPoint x="820" y="230" as="targetPoint" />
            <Array as="points">
              <mxPoint x="820" y="1240" />
              <mxPoint x="820" y="280" />
            </Array>
          </mxGeometry>
        </mxCell>
        <mxCell id="IS-0kcML-_zUASKxUhi8-53" value="" style="endArrow=block;dashed=1;endFill=0;endSize=12;html=1;rounded=0;" edge="1" parent="1">
          <mxGeometry width="160" relative="1" as="geometry">
            <mxPoint x="390" y="730" as="sourcePoint" />
            <mxPoint x="470" y="1145" as="targetPoint" />
            <Array as="points">
              <mxPoint x="530" y="730" />
            </Array>
          </mxGeometry>
        </mxCell>
        <mxCell id="IS-0kcML-_zUASKxUhi8-54" value="Sponser" style="shape=umlActor;verticalLabelPosition=bottom;verticalAlign=top;html=1;" vertex="1" parent="1">
          <mxGeometry x="690" y="1320" width="25" height="60" as="geometry" />
        </mxCell>
        <mxCell id="IS-0kcML-_zUASKxUhi8-55" value="" style="endArrow=open;endFill=1;endSize=12;html=1;rounded=0;entryX=1;entryY=0.5;entryDx=0;entryDy=0;" edge="1" parent="1" target="IS-0kcML-_zUASKxUhi8-48">
          <mxGeometry width="160" relative="1" as="geometry">
            <mxPoint x="680" y="1340" as="sourcePoint" />
            <mxPoint x="670" y="1340" as="targetPoint" />
          </mxGeometry>
        </mxCell>
        <mxCell id="IS-0kcML-_zUASKxUhi8-56" value="Notify Organizer" style="endArrow=block;endSize=16;endFill=0;html=1;rounded=0;exitX=0;exitY=0.5;exitDx=0;exitDy=0;" edge="1" parent="1" source="IS-0kcML-_zUASKxUhi8-48">
          <mxGeometry width="160" relative="1" as="geometry">
            <mxPoint x="160" y="1320" as="sourcePoint" />
            <mxPoint x="90" y="1210" as="targetPoint" />
          </mxGeometry>
        </mxCell>
      </root>
    </mxGraphModel>
  </diagram>
</mxfile>
